# xmcd
# 
# Track frame offsets:
#     182
#     7820
#     18257
#     30815
#     42355
#     50275
#     60922
#     68925
#     77717
#     89080
#     99105
#     109370
#     123037
#     133257
#     143820
#     153207
#     161067
#     171990
#     184430
#     196075
#     207540
# 
# Disc length: 2903
# 
# Revision: 1
# Processed by: cddbd v1.5.2PL0 Copyright (c) Steve Scherf et al.
# Submitted via: BonkEnc v1.0.15
# 
DISCID=130b5515
DTITLE=Dick Rivers b - Tu n'es plus là
DYEAR=1999
DGENRE=Chanson
TTITLE0=L'effet que tu me fais
TTITLE1=Je ne peux pas t'oublier
TTITLE2=Sarah Jane
TTITLE3=T'as seize ans demain
TTITLE4=Laisse parler ton coeur
TTITLE5=Ca ne s'oublie pas
TTITLE6=Mais oui baby
TTITLE7=Mes ennuis
TTITLE8=Tu n'es plus là (Blue bayou)
TTITLE9=Mon coeur tu remets ça
TTITLE10=J'en suis fou
TTITLE11=Dans ma vallée
TTITLE12=La colline oubliée
TTITLE13=Au chemin de nos amours
TTITLE14=Mary
TTITLE15=Ton nom
TTITLE16=Cry cry baby
TTITLE17=Qui l'a rendu fou
TTITLE18=Me falras tu (tu n'es plus là - En espagnol)
TTITLE19=Mi manchi tu (Tu n'es plus là - En italien)
TTITLE20=Una ragazza diversa (J'en suis fou - En italien)
EXTD=
EXTT0=
EXTT1=
EXTT2=
EXTT3=
EXTT4=
EXTT5=
EXTT6=
EXTT7=
EXTT8=
EXTT9=
EXTT10=
EXTT11=
EXTT12=
EXTT13=
EXTT14=
EXTT15=
EXTT16=
EXTT17=
EXTT18=
EXTT19=
EXTT20=
PLAYORDER=
